<?xml version="1.0" encoding="utf-8"?>
<!-- Generator: Adobe Illustrator 22.1.0, SVG Export Plug-In . SVG Version: 6.00 Build 0)  -->
<!DOCTYPE svg PUBLIC "-//W3C//DTD SVG 1.1//EN" "http://www.w3.org/Graphics/SVG/1.1/DTD/svg11.dtd">
<svg version="1.1" id="Layer_1" xmlns="http://www.w3.org/2000/svg" xmlns:xlink="http://www.w3.org/1999/xlink" x="0px" y="0px"
	 viewBox="0 0 100 110" style="enable-background:new 0 0 100 110;" xml:space="preserve">
<style type="text/css">
	.st0{fill:#FFFFFF;}
</style>
<g>
	<path class="st0" d="M44.3,47.1l0.1-0.1c-4.7-6.3-7.9-13.5-7.8-19.1c0.1-8.8,5.6-13.6,13.2-17c7.6,3.4,13.1,8.2,13.2,17
		c0.1,5.6-3.1,12.9-7.8,19.1l0.1,0.1c5.2-5.2,12-11.4,12.3-20.4C68,14.4,56.3,6.1,49.8,2.4l0,0c0,0,0,0,0,0c0,0,0,0,0,0l0,0
		c-6.5,3.7-18.2,12-17.8,24.2C32.3,35.7,39.1,41.9,44.3,47.1z"/>
	<path class="st0" d="M60.6,74.5l-0.1,0.1c4.5,4.9,7.9,10,7.9,13.2c0,5.7-7.3,10.2-18.5,13.3c-11.2-3.1-18.5-7.6-18.5-13.3
		c0-3.2,3.4-8.3,7.9-13.2l-0.1-0.1c-8.8,5.7-11.1,10.4-11.1,14.2c0,8.1,8.5,14.7,21.9,19.7c13.4-5,21.9-11.5,21.9-19.7
		C71.7,84.8,69.4,80.2,60.6,74.5z"/>
	<path class="st0" d="M64.9,59.2l0,0.2c11.3,1,18.7,6.5,18.6,22.2c-3.9-1.5-9.2-3-14.1-3.6l0,0.2c7.1,3.9,13.8,8.1,18.7,11.7
		C92.1,67.4,80.1,57.9,64.9,59.2z"/>
	<path class="st0" d="M30.2,78c-4.9,0.6-10.2,2.1-14.1,3.6C16,65.9,23.5,60.4,34.7,59.4l0-0.2c-15.2-1.3-27.2,8.2-23.1,30.7
		c4.9-3.6,11.6-7.8,18.7-11.7L30.2,78z"/>
	<path class="st0" d="M63.6,48.3c0,1.7,1.4,3,3,3c1.7,0,3-1.4,3-3s-1.4-3-3-3C64.9,45.3,63.6,46.7,63.6,48.3z M66.7,48.3L66.7,48.3
		L66.7,48.3C66.6,48.3,66.7,48.3,66.7,48.3z"/>
	<path class="st0" d="M30,48.3c0,1.7,1.4,3,3,3c1.7,0,3-1.4,3-3s-1.4-3-3-3C31.4,45.3,30,46.7,30,48.3z M33,48.4L33,48.4
		C33,48.3,33,48.3,33,48.4L33,48.4z"/>
	<path class="st0" d="M68.6,34.3l0,0.1c8.9-1.7,16.4,0.6,23.4,9c-1.3,2.5-5.6,9.2-15.4,13.6c4,1.1,7.3,3.4,7.3,3.4
		c2.7-1.5,11.1-7.8,14.9-17.6C89,33.1,78.2,30.3,68.6,34.3z"/>
	<path class="st0" d="M23.1,57C13.3,52.6,9,45.9,7.7,43.4c6.9-8.4,14.5-10.7,23.4-9l0-0.1c-9.6-4-20.4-1.2-30.2,8.5
		C4.6,52.6,13,58.9,15.7,60.4C15.7,60.4,19,58.1,23.1,57z"/>
	<path class="st0" d="M42.3,49.3c-0.5,0.3-4.6,2.9-4.6,7.4c0,4,1.6,8.1,10.1,14c0.2,2.1,0.5,5.2,0.8,8.3c0.6,5.4,1.1,13.8,1.1,13.8
		H50c0,0,0.6-8.4,1.1-13.8c0.3-3.1,0.6-6.2,0.8-8.3c8.4-5.9,10.1-9.9,10.1-14c0-4.5-4.1-7.1-4.6-7.4l-0.1,0.1c1.2,1.7,2,3.3,2,5.5
		c0,3.8-2.2,7.4-9.5,9.8c-7.3-2.4-9.5-6-9.5-9.8C40.3,52.7,41.1,51,42.3,49.3L42.3,49.3z"/>
	<path class="st0" d="M52,47.6c2.3-2.3,4.3-4.9,4.3-8.3c0-4.5-2.9-7.1-6.6-9.1l0,0c0,0,0,0,0,0c0,0,0,0,0,0l0,0
		c-3.6,2-6.6,4.6-6.6,9.1c0,3.4,2,5.9,4.3,8.3l0.1,0c-1.8-2.3-2.9-4.8-2.9-6.7c0-2.9,2-4.9,5.1-6.1c3.1,1.3,5.1,3.2,5.1,6.1
		C54.9,42.7,53.7,45.3,52,47.6L52,47.6z"/>
</g>
</svg>
