<?xml version="1.0" encoding="utf-8"?>
<!-- Generator: Adobe Illustrator 22.1.0, SVG Export Plug-In . SVG Version: 6.00 Build 0)  -->
<!DOCTYPE svg PUBLIC "-//W3C//DTD SVG 1.1//EN" "http://www.w3.org/Graphics/SVG/1.1/DTD/svg11.dtd">
<svg width="330px" height="45px" viewBox="0 0 330 45" version="1.1" xmlns="http://www.w3.org/2000/svg" xmlns:xlink="http://www.w3.org/1999/xlink">
<style type="text/css">
	.st0{fill:#ffffff;}
</style>
<g>
	<g>
		<path class="st0" d="M82.5,31.1h-2.6l-4.3-8L73,23v8.1h-2.6l0.1-0.1V14l-0.1-0.1H73v8.3l4.4,0L82.5,31.1z M74.1,13.8
			c3.6-0.2,5.1,0.4,6.1,2.1c0.7,1.2,0.7,2.8,0.2,4.3l-2.4,1.7c0.9-3.3,0.3-5.2-0.2-5.9C77.1,15,76.3,14.5,74.1,13.8z"/>
		<path class="st0" d="M91.4,14.7l-3.1,8.9h6l-1.4,0.9h-5l-2.3,6.5h-1.1l6-17l-0.1-0.3h3.3l6.6,17.2h-2.7L91.4,14.7z"/>
		<path class="st0" d="M103.2,31v-17l-0.1-0.1h2.7l-0.1,0.1v17l0.1,0.1h-2.7L103.2,31z"/>
		<path class="st0" d="M125.3,31l0.1,0.1h-3.5l-9.2-16.3V31l0.1,0.1h-1.2l0.1-0.1v-17l-0.1-0.1h3.5l9.2,16.3V13.9l-0.1-0.1h1.2
			l-0.1,0.1V31z"/>
		<path class="st0" d="M131.1,13.8h8.2l-1.3,0.9h-4.3v7.2h5.6l-1.4,0.9h-4.1v8.3h-2.5V14L131.1,13.8z"/>
		<path class="st0" d="M144.7,21.3c0,1.6,0.5,3.2,1.4,4.6c1.6,2.6,4.7,3.5,8.5,3.5l-2.6,1.8c-3.4,0.2-6.4-1.3-8.2-4
			c-2-3.2-2.2-7.9,2-10.7C145.1,17.9,144.7,19.7,144.7,21.3z M157.1,23.8c0-1.8-0.6-3.7-1.7-5.2c-1.4-2-4.3-3.2-8.1-3.1l2.6-1.7
			c3.4-0.2,6.4,1.2,8.1,3.9c2,3.2,2.1,8.1-2.3,11C156.6,27.3,157.1,25.5,157.1,23.8z"/>
		<path class="st0" d="M175.7,31.1H173l-4.3-8l-2.6,0v8.1h-2.6l0.1-0.1V14l-0.1-0.1h2.6v8.3l4.4,0L175.7,31.1z M167.3,13.8
			c3.6-0.2,5.1,0.4,6.1,2.1c0.7,1.2,0.7,2.8,0.2,4.3l-2.4,1.7c0.9-3.3,0.3-5.2-0.2-5.9C170.3,15,169.5,14.5,167.3,13.8z"/>
		<path class="st0" d="M187.7,30.2l-1.4,0.9h-7.2l0.1-0.1V14l-0.1-0.1h8.1l-1.4,0.9h-4.2v7.2h5.6l-1.4,0.9h-4.2v7.4H187.7z"/>
		<path class="st0" d="M198.6,30c-3.1,2.1-5.9,1.8-8-1.4l2.3-1.5C194.2,28.8,195.6,30.4,198.6,30z M193.5,15.9
			c-0.6,2.6,3,4.3,4.5,5.6c2.1,1.6,6.7,4.6,1.4,8c1.2-2-0.1-4.1-3-6.2C193.3,21.2,189.3,18.6,193.5,15.9z M200,14.6l-1.8,1.8
			c-0.8-0.5-2.5-1-3.9-1.1l2.3-1.5C198,13.7,199,14,200,14.6z"/>
		<path class="st0" d="M214.5,13.8l-1.4,1h-3.1v16.1l0.1,0.1h-2.6l0.1-0.1V14.8H203l1.4-1H214.5z"/>
	</g>
	<g>
		<path class="st0" d="M241.2,29.9l-1.5,1h-8.2l0.1-0.1v-17l-0.1-0.1h2.7l-0.1,0.1v16.2H241.2z"/>
		<path class="st0" d="M243.9,13.7h2.6l-0.1,0.1l0,12.5c0,1.2,0.3,1.8,0.7,2.3c0.6,0.7,1.5,1.2,2.6,1.2c1.2,0,1.7-0.1,2.3-0.3
			l-2.7,1.8h-0.5c-1.6,0-3-0.6-3.8-1.4c-0.7-0.6-1.1-1.4-1.1-2.8V13.7z M257.2,13.8v17l0.1,0.1h-2.6v-3.2l-1.7,1.1
			c0.1-0.2,1.7-2.8,1.7-2.8V13.8l-0.1-0.1h2.6L257.2,13.8z"/>
		<path class="st0" d="M281.1,30.8l0.1,0.1h-2.7l0.1-0.1V16.1l-5.6,14.8h-3.1l-5.7-15.3v15.2l0.1,0.1h-1.2l0.1-0.1v-17l-0.1-0.1h3.1
			l6.1,16.4l6.1-16.4h2.8l-0.1,0.1V30.8z"/>
		<path class="st0" d="M287.4,30.8v-17l-0.1-0.1h2.7l-0.1,0.1v17l0.1,0.1h-2.7L287.4,30.8z"/>
		<path class="st0" d="M309.6,30.8l0.1,0.1h-3.5L297,14.6v16.2l0.1,0.1h-1.2l0.1-0.1v-17l-0.1-0.1h3.5l9.2,16.3V13.8l-0.1-0.1h1.2
			l-0.1,0.1V30.8z"/>
		<path class="st0" d="M319.5,14.6l-3.1,8.9h6l-1.4,0.9h-5l-2.3,6.5h-1.1l6-17l-0.1-0.3h3.3l6.6,17.3h-2.7L319.5,14.6z"/>
	</g>
	<g>
		<path class="st0" d="M19.3,19.1L19.3,19.1c-1.9-2.6-3.1-5.5-3.1-7.8c0-3.6,2.3-5.5,5.4-6.9c3.1,1.4,5.3,3.3,5.4,6.9
			c0,2.3-1.3,5.2-3.2,7.8l0.1,0c2.1-2.1,4.9-4.6,5-8.3c0.1-5-4.6-8.3-7.2-9.8l0,0c0,0,0,0,0,0c0,0,0,0,0,0l0,0
			c-2.6,1.5-7.4,4.9-7.2,9.8C14.4,14.5,17.2,17,19.3,19.1z"/>
		<path class="st0" d="M25.9,30.3L25.9,30.3c1.8,2,3.1,4.1,3.1,5.4c0,2.3-3,4.1-7.5,5.4C17,39.8,14,38,14,35.6
			c0-1.3,1.4-3.4,3.2-5.3l-0.1,0c-3.6,2.3-4.5,4.2-4.5,5.8c0,3.3,3.4,6,8.9,8c5.4-2,8.9-4.7,8.9-8C30.4,34.5,29.5,32.6,25.9,30.3z"
			/>
		<path class="st0" d="M27.7,24.1L27.7,24.1c4.6,0.5,7.6,2.7,7.6,9.1c-1.6-0.6-3.7-1.2-5.7-1.5l0,0.1c2.9,1.6,5.6,3.3,7.6,4.8
			C38.7,27.4,33.8,23.5,27.7,24.1z"/>
		<path class="st0" d="M13.6,31.7c-2,0.2-4.1,0.9-5.7,1.5c0-6.4,3-8.6,7.6-9l0-0.1c-6.2-0.5-11,3.3-9.4,12.5
			C8,35.1,10.7,33.4,13.6,31.7L13.6,31.7z"/>
		<path class="st0" d="M27.1,19.7c0,0.7,0.6,1.2,1.2,1.2s1.2-0.6,1.2-1.2c0-0.7-0.6-1.2-1.2-1.2S27.1,19,27.1,19.7z M28.4,19.7
			L28.4,19.7L28.4,19.7C28.4,19.6,28.4,19.6,28.4,19.7z"/>
		<path class="st0" d="M13.5,19.7c0,0.7,0.6,1.2,1.2,1.2s1.2-0.6,1.2-1.2c0-0.7-0.6-1.2-1.2-1.2S13.5,19,13.5,19.7z M14.7,19.7
			L14.7,19.7C14.7,19.6,14.7,19.6,14.7,19.7L14.7,19.7z"/>
		<path class="st0" d="M29.1,13.9L29.1,13.9c3.6-0.6,6.7,0.3,9.5,3.7c-0.5,1-2.3,3.7-6.2,5.5c1.6,0.4,3,1.4,3,1.4
			c1.1-0.6,4.5-3.2,6.1-7.1C37.4,13.5,33,12.3,29.1,13.9z"/>
		<path class="st0" d="M10.7,23.2c-4-1.8-5.7-4.5-6.2-5.5c2.8-3.4,5.9-4.3,9.5-3.6l0-0.1c-3.9-1.6-8.3-0.5-12.3,3.5
			c1.5,4,5,6.5,6.1,7.1C7.7,24.5,9,23.6,10.7,23.2z"/>
		<path class="st0" d="M18.5,20c-0.2,0.1-1.9,1.2-1.9,3c0,1.6,0.7,3.3,4.1,5.7c0.1,0.8,0.2,2.1,0.3,3.4c0.2,2.2,0.5,5.6,0.5,5.6h0.1
			c0,0,0.2-3.4,0.5-5.6c0.1-1.3,0.2-2.5,0.3-3.4c3.4-2.4,4.1-4,4.1-5.7c0-1.8-1.7-2.9-1.9-3l0,0c0.5,0.7,0.8,1.4,0.8,2.2
			c0,1.5-0.9,3-3.9,4c-2.9-1-3.9-2.5-3.9-4C17.7,21.4,18,20.7,18.5,20L18.5,20z"/>
		<path class="st0" d="M22.4,19.4c0.9-0.9,1.8-2,1.8-3.4c0-1.8-1.2-2.9-2.7-3.7v0c0,0,0,0,0,0c0,0,0,0,0,0v0
			c-1.5,0.8-2.7,1.9-2.7,3.7c0,1.4,0.8,2.4,1.8,3.4l0,0c-0.7-1-1.2-2-1.2-2.7c0-1.2,0.8-2,2.1-2.5c1.3,0.5,2.1,1.3,2.1,2.5
			C23.6,17.4,23.1,18.4,22.4,19.4L22.4,19.4z"/>
	</g>
</g>
</svg>
