<?xml version="1.0" encoding="utf-8"?>
<!-- Generator: Adobe Illustrator 22.1.0, SVG Export Plug-In . SVG Version: 6.00 Build 0)  -->
<!DOCTYPE svg PUBLIC "-//W3C//DTD SVG 1.1//EN" "http://www.w3.org/Graphics/SVG/1.1/DTD/svg11.dtd">
<svg version="1.1" id="Layer_1" xmlns="http://www.w3.org/2000/svg" xmlns:xlink="http://www.w3.org/1999/xlink" x="0px" y="0px"
	 viewBox="0 0 465 247.1" style="enable-background:new 0 0 465 247.1;" xml:space="preserve">
<style type="text/css">
	.st0{fill:#FFFFFF;}
</style>
<g>
	<path class="st0" d="M41.3,163.1h-8.4l-13.6-25.7l-8.2-0.1v25.8H2.8l0.3-0.5v-54.2l-0.3-0.5h8.2v26.5l14,0.1L41.3,163.1z
		 M14.5,107.9c11.4-0.7,16.2,1.3,19.4,6.6c2.3,3.9,2.3,8.8,0.6,13.7l-7.8,5.3c3-10.5,0.9-16.5-0.6-18.8
		C24.1,111.7,21.6,110.2,14.5,107.9z"/>
	<path class="st0" d="M69.8,110.9l-10,28.4H79l-4.4,3H58.7l-7.4,20.8h-3.4L67,108.8l-0.5-0.8h10.6L98,163.1h-8.7L69.8,110.9z"/>
	<path class="st0" d="M107.5,162.7v-54.4l-0.3-0.4h8.6l-0.3,0.4v54.4l0.3,0.4h-8.6L107.5,162.7z"/>
	<path class="st0" d="M178.1,162.7l0.3,0.4h-11.1L137.8,111v51.7l0.3,0.4h-3.9l0.3-0.4v-54.4l-0.3-0.4h11.1l29.4,52.2v-51.8
		l-0.3-0.4h3.9l-0.3,0.4V162.7z"/>
	<path class="st0" d="M196.8,107.9h26.2l-4.2,2.9h-13.8v23h17.8l-4.6,2.9h-13.2v26.4h-8v-54.7L196.8,107.9z"/>
	<path class="st0" d="M240.3,131.9c0,5.1,1.6,10.3,4.4,14.7c5.2,8.3,15.1,11.3,27.1,11.1l-8.4,5.7c-10.8,0.6-20.6-4.1-26.1-12.8
		c-6.4-10.1-6.9-25.2,6.3-34.1C241.5,120.9,240.3,126.7,240.3,131.9z M280,139.7c0-5.7-1.9-11.8-5.4-16.7
		c-4.4-6.4-13.8-10.2-25.9-10l8.2-5.5c10.9-0.6,20.6,4,26,12.6c6.4,10.2,6.6,25.8-7.5,35.2C278.3,150.9,280,145.2,280,139.7z"/>
	<path class="st0" d="M339.2,163.1h-8.4l-13.6-25.7l-8.2-0.1v25.8h-8.2l0.3-0.5v-54.2l-0.3-0.5h8.2v26.5l14,0.1L339.2,163.1z
		 M312.4,107.9c11.4-0.7,16.2,1.3,19.4,6.6c2.3,3.9,2.3,8.8,0.6,13.7l-7.8,5.3c3-10.5,0.9-16.5-0.6-18.8
		C322,111.7,319.5,110.2,312.4,107.9z"/>
	<path class="st0" d="M377.8,160.2l-4.4,2.9h-23l0.3-0.5v-54.2l-0.3-0.5h26l-4.4,2.9h-13.4v23h17.8l-4.4,2.9h-13.4v23.5H377.8z"/>
	<path class="st0" d="M412.5,159.6c-9.9,6.6-18.7,5.7-25.5-4.5l7.3-4.9C398.5,155.9,402.9,161,412.5,159.6z M396.1,114.5
		c-1.8,8.2,9.5,13.9,14.5,17.8c6.7,5.2,21.4,14.5,4.4,25.6c3.9-6.3-0.3-13.2-9.7-19.8C395.6,131.4,382.8,123.3,396.1,114.5z
		 M416.9,110.5l-5.7,5.7c-2.7-1.6-7.9-3.2-12.6-3.4l7.4-4.9C410.5,107.6,413.8,108.5,416.9,110.5z"/>
	<path class="st0" d="M463.2,107.9l-4.5,3.1h-10v51.6l0.2,0.5h-8.4l0.3-0.5V111h-14l4.4-3.1H463.2z"/>
</g>
<g>
	<path class="st0" d="M109,241.7l-4.6,3.2H78.2l0.3-0.4V190l-0.3-0.4h8.5l-0.3,0.4v51.6H109z"/>
	<path class="st0" d="M117.9,189.7h8.2l-0.2,0.5L126,230c0,3.7,0.9,5.7,2.2,7.3c1.8,2.3,4.7,4,8.4,4c3.7,0,5.4-0.5,7.3-0.9l-8.6,5.7
		h-1.6c-5.1,0-9.5-1.8-12.2-4.5c-2.1-1.9-3.6-4.5-3.6-8.8V189.7z M160.3,190.1v54.2l0.3,0.5h-8.2v-10.2l-5.3,3.6
		c0.4-0.6,5.3-9,5.3-9v-39.1l-0.3-0.5h8.4L160.3,190.1z"/>
	<path class="st0" d="M236.9,244.5l0.3,0.4h-8.5l0.3-0.4v-46.9L211,244.8h-10L182.9,196v48.5l0.3,0.4h-3.9l0.3-0.4V190l-0.3-0.4h9.8
		l19.5,52.4l19.7-52.4h8.9l-0.3,0.4V244.5z"/>
	<path class="st0" d="M256.7,244.5V190l-0.3-0.4h8.6l-0.3,0.4v54.4l0.3,0.4h-8.6L256.7,244.5z"/>
	<path class="st0" d="M327.8,244.5l0.3,0.4H317l-29.4-52.1v51.7l0.3,0.4H284l0.3-0.4V190l-0.3-0.4h11.1l29.4,52.2V190l-0.3-0.4h3.9
		l-0.3,0.4V244.5z"/>
	<path class="st0" d="M359.6,192.6l-10,28.4h19.3l-4.5,3h-15.9l-7.4,20.9h-3.4l19.2-54.3l-0.5-0.8h10.6l21,55.2h-8.7L359.6,192.6z"
		/>
</g>
<g>
	<path class="st0" d="M228.9,33.3l0.1,0c-3.4-4.5-5.6-9.7-5.6-13.7c0.1-6.3,4-9.7,9.4-12.1c5.5,2.5,9.4,5.8,9.4,12.1
		c0,4-2.2,9.2-5.6,13.7l0.1,0c3.7-3.7,8.6-8.1,8.8-14.6c0.3-8.8-8.1-14.7-12.7-17.3l0,0c0,0,0,0,0,0c0,0,0,0,0,0l0,0
		c-4.6,2.7-13,8.5-12.7,17.3C220.3,25.2,225.2,29.6,228.9,33.3z"/>
	<path class="st0" d="M240.5,52.9L240.5,52.9c3.1,3.5,5.5,7.2,5.5,9.5c0,4.1-5.2,7.3-13.2,9.5c-8-2.2-13.2-5.4-13.2-9.5
		c0-2.3,2.4-5.9,5.6-9.4l-0.1-0.1c-6.3,4.1-8,7.4-8,10.1c0,5.8,6.1,10.5,15.6,14c9.6-3.6,15.6-8.2,15.6-14
		C248.5,60.3,246.8,57,240.5,52.9z"/>
	<path class="st0" d="M243.6,42l0,0.1c8,0.7,13.4,4.6,13.3,15.9c-2.8-1-6.6-2.2-10.1-2.6l0,0.1c5.1,2.8,9.9,5.8,13.3,8.4
		C263.1,47.8,254.5,41,243.6,42z"/>
	<path class="st0" d="M218.9,55.4c-3.5,0.4-7.3,1.5-10.1,2.6c-0.1-11.3,5.2-15.2,13.3-15.9l0-0.1c-10.9-0.9-19.4,5.8-16.5,21.9
		c3.5-2.5,8.3-5.6,13.3-8.4L218.9,55.4z"/>
	<path class="st0" d="M242.7,34.2c0,1.2,1,2.2,2.2,2.2c1.2,0,2.2-1,2.2-2.2s-1-2.2-2.2-2.2C243.7,32,242.7,33,242.7,34.2z
		 M244.9,34.2L244.9,34.2L244.9,34.2C244.9,34.2,244.9,34.2,244.9,34.2z"/>
	<path class="st0" d="M218.7,34.2c0,1.2,1,2.2,2.2,2.2c1.2,0,2.2-1,2.2-2.2s-1-2.2-2.2-2.2C219.7,32,218.7,33,218.7,34.2z
		 M220.9,34.2L220.9,34.2C220.9,34.2,220.9,34.2,220.9,34.2L220.9,34.2z"/>
	<path class="st0" d="M246.3,24.2L246.3,24.2c6.3-1.1,11.7,0.5,16.7,6.5c-1,1.8-4,6.6-11,9.7c2.9,0.8,5.2,2.4,5.2,2.4
		c1.9-1,7.9-5.6,10.6-12.5C260.8,23.3,253.1,21.3,246.3,24.2z"/>
	<path class="st0" d="M213.7,40.4c-6.9-3.1-10-8-11-9.7c5-6,10.4-7.6,16.7-6.4l0-0.1c-6.8-2.9-14.6-0.8-21.6,6.1
		c2.7,7,8.7,11.5,10.6,12.5C208.5,42.8,210.9,41.2,213.7,40.4z"/>
	<path class="st0" d="M227.5,34.9c-0.3,0.2-3.3,2.1-3.3,5.3c0,2.9,1.2,5.8,7.2,10c0.1,1.5,0.4,3.7,0.6,5.9c0.4,3.8,0.8,9.8,0.8,9.8
		h0.2c0,0,0.4-6,0.8-9.8c0.2-2.2,0.4-4.4,0.6-5.9c6-4.2,7.2-7.1,7.2-10c0-3.2-2.9-5.1-3.3-5.3l-0.1,0c0.9,1.2,1.4,2.4,1.4,4
		c0,2.7-1.6,5.3-6.8,7c-5.2-1.7-6.8-4.3-6.8-7C226.1,37.3,226.7,36.1,227.5,34.9L227.5,34.9z"/>
	<path class="st0" d="M234.4,33.7c1.7-1.7,3.1-3.5,3.1-5.9c0-3.2-2.1-5.1-4.7-6.5v0c0,0,0,0,0,0c0,0,0,0,0,0v0
		c-2.6,1.4-4.7,3.3-4.7,6.5c0,2.4,1.5,4.2,3.1,5.9l0.1,0c-1.3-1.7-2.1-3.5-2.1-4.8c0-2.1,1.4-3.5,3.6-4.4c2.2,0.9,3.6,2.3,3.6,4.4
		C236.5,30.2,235.6,32,234.4,33.7L234.4,33.7z"/>
</g>
</svg>
